<!DOCTYPE svg PUBLIC "-//W3C//DTD SVG 1.1//EN" "http://www.w3.org/Graphics/SVG/1.1/DTD/svg11.dtd">
<!-- Uploaded to: SVG Repo, www.svgrepo.com, Transformed by: SVG Repo Mixer Tools -->
<svg height="100px" width="100px" version="1.1" id="Icons" xmlns="http://www.w3.org/2000/svg" xmlns:xlink="http://www.w3.org/1999/xlink" viewBox="0 0 32 32" xml:space="preserve" fill="#000000">
<g id="SVGRepo_bgCarrier" stroke-width="0"/>
<g id="SVGRepo_tracerCarrier" stroke-linecap="round" stroke-linejoin="round"/>
<g id="SVGRepo_iconCarrier"> <style type="text/css"> .st0{fill:#FFFFFF;} </style> <path d="M15,29V8c0-1.7-1.3-3-3-3H3C1.9,5,1,5.9,1,7v17c0,1.1,0.9,2,2,2h9C13.7,26,15,27.3,15,29L15,29"/> <path d="M17,29V8c0-1.7,1.3-3,3-3h9c1.1,0,2,0.9,2,2v17c0,1.1-0.9,2-2,2h-9C18.3,26,17,27.3,17,29L17,29"/> </g>
</svg>